<svg width="771" height="186" viewBox="0 0 771 186" fill="none" xmlns="http://www.w3.org/2000/svg">
<path d="M280.944 148.542H300.454L265.949 34.0625H243.053L208.548 148.542H228.058L235.608 121.746H273.246L280.944 148.542ZM254.179 50.5095H254.824C257.403 64.5365 262.301 83.9895 268.723 105.775H240.109C246.558 84.0075 251.599 64.5365 254.179 50.5095Z" fill="white"/>
<path d="M468.486 106.132C468.486 83.0754 457.36 65.9844 432.369 65.9844C408.989 65.9844 394.155 82.2694 394.155 107.422C394.155 133.543 407.377 150.473 432.604 150.473C449.299 150.473 463.19 143.36 468.002 129.996C469.009 127.2 469.387 125.533 469.702 122.579C469.731 122.303 469.756 121.698 469.756 121.698H451.729C451.729 121.698 451.656 122.447 451.63 122.579C450.192 129.834 443.172 135.316 432.604 135.316C421.082 135.316 413.181 125.642 413.181 112.582H468.256C468.417 110.486 468.486 108.229 468.486 106.132ZM449.299 100.328H413.02C413.02 89.3644 419.47 79.2064 431.885 79.2064C443.978 79.2064 449.46 88.3964 449.299 100.328Z" fill="white"/>
<path d="M521.994 150.448C548.437 150.448 562.787 133.68 564.399 109.494L564.634 105.786H544.728C543.761 124.167 536.344 134.002 522.8 134.002C507.644 134.002 500.227 120.619 500.227 95.6283V85.0123C500.227 59.8593 507.321 47.7673 522.8 47.7673C536.183 47.7673 543.761 57.7633 544.728 75.8223H564.696L564.56 72.7583C562.464 44.5423 547.469 31.3203 522.961 31.3203C494.261 31.3203 479.911 51.9593 479.911 85.3353V96.4343C479.911 129.81 493.777 150.448 521.994 150.448Z" fill="white"/>
<path d="M613.259 150.473C636.155 150.473 652.44 134.671 652.44 108.229C652.44 81.7864 636.155 65.9844 613.259 65.9844C590.363 65.9844 574.078 81.7864 574.078 108.229C574.078 134.349 590.363 150.473 613.259 150.473ZM613.259 135.639C601.005 135.639 593.749 125.803 593.749 108.229C593.749 90.6544 601.005 80.8184 613.259 80.8184C625.513 80.8184 632.769 90.8154 632.769 108.229C632.769 125.803 625.513 135.639 613.259 135.639Z" fill="white"/>
<path d="M687.076 34.082H668.211V53.554H687.076V34.082ZM668.211 148.541H687.076V134.029V67.922H656.226V82.4341H668.211V134.029V148.541Z" fill="white"/>
<path fill-rule="evenodd" clip-rule="evenodd" d="M327.311 67.9194H309.413V179.979H328.278V151.105V141.127C336.476 144.661 342.119 150.473 351.335 150.473C372.78 150.473 384.872 133.382 384.872 108.067C384.872 83.3984 373.263 65.9844 352.141 65.9844C342.554 65.9844 335.487 72.3914 327.311 76.6204V67.9194ZM327.794 106.294V110.325C327.794 125.642 335.05 135.639 346.498 135.639C358.268 135.639 365.201 124.836 365.201 108.067C365.201 91.4604 358.752 80.8184 346.659 80.8184C335.373 80.8184 327.794 90.0094 327.794 106.294Z" fill="white"/>
<path d="M718.339 67.9194H700.281V148.538H719.145V105.004C719.145 95.1684 723.176 81.6244 737.688 81.6244C744.943 81.6244 751.877 85.4944 751.877 100.812V148.538H770.905V98.7164C770.905 85.3334 768.165 77.5934 763.005 72.5954C757.845 67.5974 750.748 65.9844 744.46 65.9844C733.95 65.9844 726.515 72.3914 718.339 76.6204V67.9194Z" fill="white"/>
<mask id="mask0_1361_2543" style="mask-type:alpha" maskUnits="userSpaceOnUse" x="0" y="0" width="186" height="186">
<path d="M185.558 92.779C185.558 41.5386 144.019 0 92.779 0C41.5386 0 0 41.5386 0 92.779C0 144.019 41.5386 185.558 92.779 185.558C144.019 185.558 185.558 144.019 185.558 92.779Z" fill="url(#paint0_radial_1361_2543)"/>
</mask>
<g mask="url(#mask0_1361_2543)">
<path d="M185.558 92.779C185.558 41.5386 144.019 0 92.779 0C41.5386 0 0 41.5386 0 92.779C0 144.019 41.5386 185.558 92.779 185.558C144.019 185.558 185.558 144.019 185.558 92.779Z" fill="url(#paint1_radial_1361_2543)"/>
<path d="M155.87 63.8194C155.482 66.0904 155.027 67.1914 154.495 68.4664L154.494 68.4694C153.919 69.8504 153.267 71.4184 152.677 74.5294C152.442 75.7744 152.325 76.6884 152.223 77.4934L152.216 77.5434L152.21 77.5904C152.046 78.8794 151.936 79.7484 151.412 81.2944C150.987 82.5564 150.276 84.6634 148.564 86.9324C147.181 88.7684 144.866 91.8414 141.777 92.2094C141.509 92.2274 140.948 92.2554 140.719 92.1384C131.956 87.6634 124.427 84.3574 121.821 83.6154C118.79 82.7564 119.178 76.1474 119.521 70.3164C119.675 67.7104 119.82 65.2464 119.698 63.1364C119.272 55.7754 117.969 47.7184 111.558 43.7904C107.731 41.4464 102.794 40.7584 98.0771 40.7484C98.9511 40.3324 99.9262 39.7674 100.988 39.1494L101.021 39.1304C103.798 37.5224 107.246 35.5254 110.672 35.1744C111.792 35.0634 112.893 34.9344 113.979 34.8134C120.885 34.0314 126.852 33.3594 133.145 35.5144C135.998 36.4934 141.85 39.7584 143.361 42.7894C144.425 44.9294 146.22 46.5974 149.801 49.9264C151.665 51.6604 152.893 52.6694 153.792 53.4074L153.833 53.4414C155.095 54.4794 155.344 54.6964 155.72 55.4634C156.88 57.8284 156.457 60.3404 155.87 63.8194Z" fill="white"/>
<path d="M123.992 94.0792C124.407 94.2222 124.562 94.7262 124.321 95.0922C123.385 96.5122 122.313 98.4602 121.028 100.842C120.425 101.965 119.854 103.025 119.375 103.852C117.677 106.768 117.539 109.222 117.431 111.192C117.314 113.252 117.21 114.198 115.979 115.019C114.963 115.7 113.922 115.927 106.707 117.026C105.448 117.221 104.889 117.465 104.398 117.679C104.264 117.737 104.131 117.795 103.979 117.852C103.562 118.008 103.154 117.653 103.179 117.21C103.236 116.17 103.273 114.871 103.277 113.237V112.924C103.315 111.51 103.256 110.363 103.205 109.438C103.11 107.596 103.098 106.82 103.589 106.018C104.192 105.049 104.662 104.753 105.435 104.263C106.514 103.585 107.994 102.652 110.184 99.6422C111.348 98.0482 111.606 97.1842 111.767 96.4372C111.837 96.1272 111.862 96.0112 112.758 95.3322C113.705 94.6132 116.592 92.4262 120.287 93.0472C121.309 93.2202 122.611 93.6022 123.992 94.0792Z" fill="white"/>
<path d="M95.2844 127.344C95.1274 127.549 94.9434 127.644 94.6784 127.657C93.9244 127.689 93.3944 127.502 93.0434 127.08C92.2994 126.174 92.3994 124.354 92.5734 123.29L95.6244 122.477C95.8634 124.092 95.9754 126.445 95.2844 127.344Z" fill="white"/>
<path d="M95.5317 116.333C95.4807 116.778 95.4247 117.279 95.4267 117.803C95.4307 117.998 95.4327 118.195 95.4387 118.386C95.4447 118.885 95.4647 119.677 95.3957 120.037C94.4427 120.384 93.6287 120.384 92.5587 120.365C92.5427 120.056 92.5627 119.595 92.5747 119.284C92.5807 119.044 92.5937 118.805 92.5967 118.577C92.5997 118.324 92.5967 118.075 92.5967 117.826C92.5927 117.239 92.5847 116.277 92.7287 115.994C93.0157 115.952 93.3097 115.889 93.6247 115.817C94.2557 115.681 95.0787 115.507 95.6027 115.586C95.5947 115.79 95.5627 116.093 95.5317 116.333Z" fill="white"/>
<path d="M89.8867 126.405C89.7397 127.969 89.2567 129.903 87.7897 130.197C87.1297 130.333 86.8107 130.134 86.6097 129.945C85.6187 129.027 85.4607 126.253 85.5987 124.269C86.2587 124.281 87.1237 124.133 88.1477 123.935C88.7727 123.811 89.3947 123.673 89.8897 123.559C89.9467 124.293 89.9877 125.341 89.8867 126.405Z" fill="white"/>
<path d="M89.1928 120.79L85.8828 121.951C86.0508 120.666 86.2748 118.858 86.3538 117.657C86.4108 116.811 86.6408 116.552 86.7068 116.496C86.7288 116.477 86.7728 116.437 86.8958 116.437C86.9148 116.437 86.9338 116.44 86.9548 116.44L87.0248 116.45L89.1158 116.336C89.2048 117.319 89.2048 119.478 89.1928 120.79Z" fill="white"/>
<path d="M83.8453 119.761C83.6583 120.259 83.4373 121.67 83.2993 122.663L79.1533 122.537C79.3873 121.253 79.7113 119.946 80.0673 118.905C80.4273 117.87 80.8153 117.094 81.1723 116.876C81.5883 116.626 82.5043 116.57 83.0653 117.049C83.9773 117.827 84.2293 118.717 83.8453 119.761Z" fill="white"/>
<path d="M82.2974 132.451C81.9764 132.89 81.6194 133.113 81.1774 133.16C80.7264 133.211 80.3754 133.11 80.0954 132.848C78.7934 131.646 78.8994 127.708 78.9474 125.815C80.6664 125.423 82.5224 125.09 83.4024 125.039C83.5344 126.624 83.5724 130.716 82.2974 132.451Z" fill="white"/>
<path d="M76.8859 122.425C76.6839 122.965 76.4879 123.475 76.3399 123.927C75.8579 124.078 74.3839 123.946 72.8789 123.614L73.9139 117.089C75.6139 116.638 77.5859 116.493 78.0629 116.998C78.6909 117.665 77.4289 121.003 76.8859 122.425Z" fill="white"/>
<path d="M75.0102 133.444C74.2062 134.435 73.0002 134.898 71.3182 134.88C70.1542 134.861 69.7382 134.419 69.5302 134.088C68.5962 132.609 69.5102 129.122 70.4262 126.895L76.0422 127.232C76.0992 127.623 76.1462 128.099 76.1682 128.617C76.2302 130.202 76.0312 132.176 75.0102 133.444Z" fill="white"/>
<path d="M121.42 86.0937C116.364 84.6617 116.799 77.2687 117.22 70.1237C117.369 67.5957 117.51 65.2047 117.395 63.2507C117.007 56.5627 115.882 49.2787 110.503 45.9817C104.717 42.4437 95.2524 43.2497 89.4124 43.9927C89.4074 43.9937 89.4024 43.9967 89.3974 43.9977C89.3944 43.9977 89.3924 43.9977 89.3904 43.9987C87.2514 44.6467 85.2504 45.0666 83.6994 44.9846C80.2534 44.8066 77.5724 43.3557 75.2114 42.0827C73.3694 41.0847 71.7624 40.2227 70.2494 40.2227C70.1694 40.2227 70.0854 40.2227 70.0024 40.2257C65.4754 40.5197 63.3944 41.6257 61.5044 43.3127C61.0294 43.7327 60.4494 44.9517 58.5514 50.4207C57.5934 53.1847 57.4164 54.6967 57.2384 56.1667C57.0784 57.5097 56.9154 58.8907 56.2014 60.9507C55.7044 62.3727 55.3374 63.5987 54.9824 64.7807C54.0464 67.9217 53.3064 70.3957 51.0834 73.3377C50.8224 73.6857 50.4994 74.1977 50.1254 74.7807C49.6214 75.5747 48.9974 76.5617 48.1744 77.7047C47.5934 78.5097 46.2594 81.5227 46.3324 82.4407C46.4414 83.9027 46.9164 84.8097 47.4604 85.8687C48.0014 86.9127 48.6174 88.0947 48.7294 89.7267L48.7484 89.9917C48.9464 92.5807 48.5774 93.8797 43.6524 98.2787C40.5034 101.097 38.2664 103.811 36.7574 105.803C36.6244 105.979 36.7974 106.24 37.0174 106.222C37.0684 106.215 37.1194 106.212 37.1664 106.212C37.2614 106.204 37.3554 106.201 37.4494 106.201C37.5434 106.201 37.6384 106.204 37.7314 106.208C37.8264 106.212 37.9174 106.219 38.0104 106.233C39.2014 106.369 40.3624 106.873 41.2004 107.741C41.3464 107.892 41.5734 107.933 41.7674 107.855C42.5694 107.521 43.4504 107.576 44.2924 107.655C45.3324 107.751 46.3824 108.062 47.0724 108.733C47.2804 108.936 47.5774 109.039 47.8614 108.974C48.6764 108.789 49.5314 108.806 50.3244 109.094C50.9504 109.327 51.4764 109.695 51.8944 110.158C52.1864 110.482 52.7044 110.544 53.0704 110.308C53.2984 110.161 53.5494 110.037 53.8284 109.943C54.8974 109.58 56.0804 109.787 57.1184 110.16C57.6294 110.344 58.1654 110.508 58.6264 110.816C59.4734 111.38 59.9904 112.204 60.3204 113.125C60.5074 113.644 61.2064 113.824 61.6304 113.471C62.3924 112.837 62.9954 112.73 63.6034 113C63.9134 113.14 64.1294 113.332 64.2744 113.573C64.5274 113.992 65.0424 114.337 65.5134 114.205C67.1684 113.744 69.2404 113.984 70.7414 114.788C71.2714 115.066 71.7924 115.491 72.1724 116.133C72.1734 116.133 72.1734 116.133 72.1734 116.134C72.1744 116.137 72.1774 116.136 72.1774 116.133L72.2214 115.848C72.2414 115.719 72.3324 115.612 72.4574 115.573L72.8054 115.466C73.6254 115.205 77.8034 114.001 79.4284 115.712C79.4984 115.782 79.6204 115.789 79.6884 115.716C79.9094 115.473 80.0894 115.34 80.2044 115.274C81.2624 114.632 83.0774 114.592 84.2844 115.626C84.5274 115.83 84.9214 115.756 85.1044 115.496C85.2174 115.337 85.3454 115.196 85.4894 115.075C85.9134 114.709 86.4504 114.534 87.0454 114.571L89.3404 114.447C89.9174 114.415 91.7114 114.293 92.2764 114.174C92.3194 114.165 92.3634 114.157 92.4084 114.15C92.6474 114.113 92.9314 114.052 93.2284 113.99C94.3414 113.747 95.6044 113.474 96.6414 113.953C97.6374 114.414 97.5114 115.549 97.3914 116.55C97.3444 116.956 97.2934 117.38 97.2974 117.783C97.3044 117.971 97.3084 118.16 97.3114 118.353C97.3264 119.216 97.3444 120.013 97.1734 120.625C97.1734 120.626 97.1734 120.628 97.1734 120.629C97.1734 120.63 97.1734 120.631 97.1734 120.632L97.2784 121.106C97.2834 121.124 97.2884 121.147 97.2944 121.175C97.3884 121.609 97.8544 121.851 98.2334 121.62C99.0334 121.132 99.8744 120.498 100.128 120.133C100.147 120.105 100.162 120.076 100.173 120.044C100.208 119.952 100.273 119.753 100.344 119.337C100.486 118.484 100.645 116.751 100.659 113.232C100.659 113.046 100.659 112.913 100.663 112.851C100.692 111.545 100.641 110.497 100.59 109.572C100.496 107.664 100.419 106.163 101.366 104.635C102.288 103.148 103.183 102.586 104.043 102.041C105.043 101.414 106.172 100.702 108.073 98.0947C109.005 96.8107 109.12 96.2927 109.211 95.8787C109.418 94.9097 109.738 94.3267 111.177 93.2387C112.349 92.3537 115.914 89.6517 120.724 90.4607C122.301 90.7287 124.858 91.5697 127.381 92.5637C127.382 92.5647 127.383 92.5647 127.385 92.5647C127.386 92.5647 127.387 92.5647 127.388 92.5647C127.482 92.5927 127.579 92.6257 127.668 92.6727C127.7 92.6897 127.733 92.7057 127.767 92.7197C130.021 93.6197 132.214 94.6247 133.619 95.4277C133.946 95.6147 134.365 95.5067 134.595 95.2077C135.055 94.6107 135.557 94.2647 136.098 93.9397C136.301 93.8167 136.457 93.7227 136.606 93.5957C136.657 93.5527 136.707 93.5107 136.756 93.4707C137.176 93.1307 137.175 92.4037 136.694 92.1557C129.915 88.6507 123.53 86.6937 121.42 86.0937ZM73.2424 87.6497C71.6784 94.4937 61.0764 102.017 56.2574 102.017H56.1624C56.0864 102.013 56.0024 102.006 55.9124 101.991C55.8214 101.977 55.7234 101.955 55.6194 101.926C55.5684 101.911 55.5134 101.893 55.4594 101.879C54.5844 101.603 53.3734 100.931 52.4564 100.029C51.8254 99.4097 51.3284 98.6787 51.1724 97.8917C51.1434 97.7537 51.1144 97.6167 51.0844 97.4787C50.8244 96.3147 50.5004 94.8607 51.5274 92.4807C51.6694 92.1617 51.7954 91.8637 51.9114 91.5917C51.9484 91.5017 51.9884 91.4107 52.0244 91.3237C52.1334 91.0667 52.2304 90.8307 52.3184 90.6167C52.4634 90.2547 52.5824 89.9467 52.6804 89.6847C52.7204 89.5827 52.7574 89.4847 52.7894 89.3947C53.0834 88.5717 53.1194 88.2637 53.1594 87.9447C53.1964 87.6947 53.2324 87.3887 53.3344 86.9537C53.6354 85.6697 53.7914 84.5817 53.9294 83.6127C54.1764 81.8707 54.3904 80.3666 55.3294 78.9846C55.4894 78.7496 55.6664 78.5346 55.8664 78.3466C55.9354 78.2816 56.0014 78.2197 56.0724 78.1577C56.1454 78.0957 56.2184 78.0417 56.2894 77.9867C56.5174 77.8267 56.7614 77.6857 57.0254 77.5657C57.1164 77.5257 57.2074 77.4857 57.2974 77.4537C57.4834 77.3847 57.6784 77.3257 57.8824 77.2747C58.7454 77.0657 59.7644 77.0327 60.9354 77.1807C62.2164 77.2827 63.4024 77.5247 64.4534 77.8187C65.3314 78.0607 66.1154 78.3447 66.7784 78.6087C66.8474 78.6347 66.9134 78.6597 66.9784 78.6887C67.1054 78.7397 67.2284 78.7907 67.3484 78.8457C67.5304 78.9217 67.6964 78.9947 67.8524 79.0627C68.0594 79.1567 68.2484 79.2407 68.4154 79.3157L68.5714 79.3887C69.3114 79.7257 69.9474 80.0957 70.4904 80.4837C70.7584 80.6807 71.0094 80.8797 71.2334 81.0817C71.3104 81.1477 71.3834 81.2167 71.4504 81.2887C71.5234 81.3587 71.5924 81.4277 71.6574 81.4967C73.6944 83.6417 73.5934 86.1227 73.2424 87.6497ZM78.1554 61.7087L77.9494 62.9497C77.4744 65.7457 76.3824 69.5797 72.3564 70.5667C68.4834 71.5137 67.5654 71.7157 64.8084 71.8397C64.7474 71.8467 64.6814 71.8466 64.6164 71.8466C62.6034 71.8466 58.7294 70.5777 58.0434 67.4217C57.6044 65.3907 58.5004 63.9187 59.9764 61.4777C60.2224 61.0747 60.4884 60.6427 60.7704 60.1607C62.7214 56.8737 63.4904 54.4947 64.1084 52.5867C64.7094 50.7227 65.2104 49.1817 66.4984 47.9047C66.7954 47.6077 67.1324 47.3277 67.5244 47.0597C67.7744 46.8887 68.0354 46.7367 68.3114 46.5947C68.6774 46.4127 69.0614 46.2547 69.4644 46.1267C70.3604 45.8407 71.3284 45.6957 72.2974 45.6957C74.1754 45.6957 76.0514 46.2357 77.3894 47.3097C77.9914 47.7917 78.8474 48.7557 79.3444 51.5997C79.6004 53.0647 79.1644 55.7567 78.1554 61.7087ZM106.878 69.6667C105.492 72.0457 104.734 73.3557 103.537 74.3377C101.162 76.2887 98.3914 76.7827 96.1094 76.7827C94.4704 76.7827 93.0784 76.5297 92.2584 76.3797C89.9004 75.9487 85.5124 75.1507 84.0504 71.6867C83.7644 71.0017 83.7614 70.5667 83.7614 70.0147C83.7614 69.4697 83.7614 68.5537 83.5074 66.3727L83.4934 66.2277C83.3764 65.2407 83.2464 64.1237 83.5294 62.6907L83.5624 62.5197C84.3894 58.3137 84.6134 57.6707 84.7994 57.3077C85.2274 56.4807 86.2424 56.1547 87.0694 56.5797C87.8704 56.9967 88.2044 57.9677 87.8274 58.7837C87.7434 59.0227 87.5084 59.9187 86.8694 63.1727L86.8364 63.3437C86.6544 64.2617 86.7344 64.9577 86.8404 65.8397L86.8544 65.9887C87.1294 68.3567 87.1294 69.4297 87.1294 70.0107C87.1294 70.1137 87.1294 70.2257 87.1334 70.2927C87.1344 70.3187 87.1474 70.3527 87.1554 70.3777C87.4294 71.0277 88.0474 71.5207 88.8004 71.8997C89.2684 72.1347 89.7574 71.6877 89.6534 71.1747C88.9044 67.4677 88.9454 63.1436 90.3614 60.4716C90.8254 59.5846 91.6834 58.1327 92.4984 56.7777C92.5014 56.7737 92.5034 56.7707 92.5054 56.7667C92.5074 56.7627 92.5104 56.7597 92.5124 56.7557C92.5954 56.6187 92.6774 56.4837 92.7594 56.3477C92.8284 56.2307 92.8974 56.1197 92.9614 56.0107C93.3204 55.4147 93.6574 54.8677 93.9274 54.4327C93.9634 54.3707 93.9994 54.3087 94.0364 54.2507C94.0614 54.2067 94.0874 54.1667 94.1124 54.1307C94.1704 54.0357 94.2214 53.9487 94.2694 53.8737C94.2904 53.8377 94.3124 53.8047 94.3304 53.7717C94.3414 53.7577 94.3494 53.7427 94.3564 53.7317C94.3814 53.6877 94.4074 53.6477 94.4294 53.6157C94.4724 53.5467 94.5054 53.4957 94.5234 53.4627C94.5254 53.4597 94.5264 53.4577 94.5274 53.4547C94.5314 53.4477 94.5394 53.4367 94.5434 53.4297C94.5464 53.4247 94.5474 53.4237 94.5504 53.4187C94.8314 53.0097 95.1094 52.6207 95.3794 52.2547C95.7464 51.7577 95.3214 51.1067 94.7494 51.3407C93.3734 51.9017 92.4334 52.6187 92.2424 52.7697C91.5134 53.3507 90.4534 53.2307 89.8774 52.5017C89.3004 51.7737 89.4204 50.7107 90.1494 50.1297C91.0164 49.4487 95.6114 46.0967 101.114 47.6707C105.079 48.7987 107.157 51.8277 107.94 52.9667C108.571 53.8917 110.505 56.6997 110.443 60.6197C110.397 63.6097 109.15 65.7607 106.878 69.6667Z" fill="white"/>
<path d="M71.1392 49.1641C70.8572 49.8461 70.5201 50.6911 70.1581 51.6091C69.3121 53.7351 68.3531 56.1431 67.8921 57.0161C67.0971 58.5251 66.4782 59.477 65.9842 60.244C65.4182 61.125 64.9672 61.8221 64.6272 62.7941C64.0302 64.4941 63.9232 66.3941 64.3112 68.4601C63.2572 68.3441 61.5322 67.6181 61.3372 66.7031C61.1912 66.0221 61.6141 65.2771 62.8611 63.2261C63.1111 62.8171 63.3791 62.3721 63.6721 61.8771C65.8151 58.2681 66.6822 55.5831 67.3202 53.6201C68.0082 51.4841 68.3332 50.5881 69.4282 49.8401C69.9182 49.4991 70.5142 49.2821 71.1392 49.1641Z" fill="white"/>
<path d="M69.0466 124.848C67.8786 127.234 66.4246 129.436 65.5186 130.527C64.7686 128.499 63.4646 123.852 63.8086 120.113C63.8186 120.005 63.8306 119.898 63.8466 119.794C63.9846 118.639 64.2916 117.58 64.8376 116.731C65.1976 116.173 66.1946 115.832 67.3266 115.832C68.1626 115.832 69.0716 116.015 69.8546 116.435H69.8606C70.2796 116.659 70.8506 117.113 70.9106 118.432C70.9966 120.214 70.1476 122.609 69.0466 124.848Z" fill="white"/>
<path d="M133.041 98.1105C133.131 98.1835 133.188 98.2935 133.136 98.3975C132.787 99.0985 132.369 99.5905 131.875 100.17C131.279 100.88 130.597 101.684 129.963 102.939C129.06 104.718 128.771 106.342 128.619 110.497C128.44 115.378 128.629 118.119 128.771 120.118C128.906 122.049 128.989 123.213 128.645 125.096C127.951 128.895 126.326 131.41 124.268 134.593C121.693 138.574 119.03 142.69 114.62 144.002C114.21 144.128 114.196 144.127 113.046 144.131C112.045 144.131 110.38 144.136 107.228 144.252C101.467 144.461 98.5769 144.565 96.1039 145.04C93.5099 145.542 92.1569 146.093 90.8449 146.623C89.6609 147.102 88.5419 147.557 86.3969 147.998C85.1179 148.256 83.2069 148.539 76.6949 148.549C69.9269 148.561 65.8409 148.564 60.4459 147.949C53.0439 147.104 49.3279 146.681 46.8599 145.363C41.0389 142.258 38.5809 136.674 34.5149 127.423C34.5079 127.407 34.5008 127.39 34.4938 127.373C34.4438 127.258 34.5839 127.148 34.6919 127.212C34.8849 127.332 35.0859 127.431 35.2979 127.502C35.4759 127.565 35.6608 127.613 35.8478 127.644C36.2198 127.707 36.6079 127.711 37.0019 127.644C37.0709 127.632 37.1339 127.615 37.1949 127.59C37.2069 127.585 37.2179 127.58 37.2299 127.575C37.2989 127.541 37.3838 127.569 37.4128 127.64C37.6718 128.353 38.0829 128.988 38.7729 129.354C39.4639 129.714 40.2499 129.741 41.0189 129.735C41.8109 129.723 42.6089 129.679 43.3979 129.584C43.8159 129.54 44.2438 129.744 44.4038 130.133C45.1268 131.885 46.0219 133.153 47.3669 133.34C47.4399 133.35 47.5349 133.363 47.6549 133.363C47.9579 133.363 48.4259 133.275 49.0859 132.821C49.5969 132.471 50.3879 132.676 50.7549 133.175C51.0909 133.63 51.4908 133.958 51.8348 134.234C53.2198 135.656 56.5858 136.338 59.4128 136.338C60.9548 136.338 62.3379 136.135 63.1519 135.739C64.3159 135.174 64.3159 134.306 64.2589 133.955C64.1599 133.326 64.0698 132.702 63.9938 132.084C63.9848 132.01 64.0969 131.981 64.1269 132.05C64.2959 132.419 64.5029 132.879 65.0539 132.968C65.1139 132.974 65.1808 132.988 65.2568 132.988C66.0448 132.988 67.2708 133.244 67.4818 134.003C67.5898 134.39 67.7419 134.752 67.9489 135.079C68.4219 135.828 69.3849 136.72 71.2939 136.752H71.4419C73.6339 136.752 75.3259 136.035 76.4669 134.618C76.5409 134.527 76.6118 134.433 76.6798 134.338C77.0898 133.76 78.3079 133.735 78.8289 134.215C79.4159 134.758 80.1548 135.038 80.9778 135.038C81.1098 135.038 81.2438 135.032 81.3818 135.016C82.3628 134.912 83.2119 134.393 83.8459 133.506C84.2609 132.927 84.5639 132.215 84.7849 131.445C84.8499 131.218 85.1618 131.15 85.3358 131.309C85.7548 131.697 86.4268 132.107 87.3958 132.107C87.6318 132.107 87.8879 132.082 88.1599 132.025C90.0639 131.642 91.0118 130.066 91.4608 128.287C91.4758 128.227 91.5618 128.211 91.6018 128.258C92.0838 128.845 92.9739 129.523 94.5229 129.523C94.6019 129.523 94.6839 129.523 94.7649 129.519C95.5849 129.481 96.2758 129.121 96.7748 128.477C97.3818 127.686 97.6208 126.514 97.6758 125.334C97.6918 124.99 97.9138 124.687 98.2318 124.554C99.8658 123.871 101.845 122.4 102.425 121.398C102.445 121.363 102.465 121.326 102.485 121.288C102.618 121.03 102.846 120.827 103.131 120.773C104.397 120.533 104.949 120.293 105.451 120.075C105.86 119.895 106.189 119.753 107.109 119.61C114.429 118.493 115.858 118.247 117.442 117.191C119.811 115.611 119.931 113.437 120.048 111.333C120.148 109.554 120.262 107.534 121.644 105.165C122.146 104.3 122.725 103.221 123.341 102.079C124.419 100.08 125.925 97.2815 127.003 95.8145C127.206 95.5375 127.573 95.4515 127.889 95.5855C130.419 96.6605 132.574 97.7365 133.041 98.1105Z" fill="white"/>
<path d="M61.9542 119.892C61.6642 122.423 61.4872 125.804 61.8972 130.208C62.0132 131.451 62.1752 132.741 62.3762 134.048C62.0292 134.237 60.9932 134.502 59.1512 134.473C56.5042 134.42 53.9272 133.754 53.1532 132.917L53.0332 132.809C52.3892 132.292 51.9672 131.951 51.9072 131.027C51.8872 130.715 52.0212 130.406 52.3072 129.969C52.4652 129.723 52.6732 129.439 52.9312 129.089C53.3762 128.492 53.9282 127.748 54.4932 126.788C56.1502 123.989 56.7782 123.125 57.5762 122.033C57.6392 121.945 57.7062 121.856 57.7752 121.765C58.2452 121.121 58.7972 120.351 59.6272 119.086C60.2452 118.147 60.7592 117.411 61.1832 116.833C61.8902 115.872 62.3532 115.35 62.6502 115.066C62.6062 115.502 62.5082 116.114 62.4132 116.679C62.2732 117.548 62.0962 118.611 61.9542 119.892Z" fill="white"/>
<path d="M60.7413 80.5451C60.7253 80.5671 60.7063 80.5891 60.6903 80.6121C60.3463 81.0891 59.9523 81.6281 59.4823 82.6781C58.2203 85.4831 58.1963 87.0711 58.1763 88.3481C58.1643 89.0171 58.1573 89.5501 57.9743 90.1721C57.8483 90.5821 57.6433 91.0521 57.4063 91.5941C56.6623 93.2981 55.6903 95.5321 56.1263 98.5381C55.5233 98.2481 54.6013 97.5851 54.4733 97.2321C54.4413 97.0681 54.4063 96.9071 54.3693 96.7461C54.1603 95.8081 54.0223 95.1971 54.6183 93.8241C56.1863 90.2081 56.3793 89.3511 56.5023 88.3661C56.5273 88.1511 56.5533 87.9841 56.6163 87.7121C56.9473 86.2861 57.1203 85.0651 57.2623 84.0841C57.4733 82.5951 57.6153 81.6101 58.1173 80.8691C58.3003 80.5951 58.8183 80.4531 59.5593 80.4531C59.8523 80.4531 60.1833 80.4751 60.5443 80.5261L60.6283 80.5321C60.6653 80.5361 60.7043 80.5391 60.7413 80.5451Z" fill="white"/>
<path d="M58.6733 116.215C58.5883 115.348 58.4363 114.479 58.1213 113.662C58.0993 113.621 58.0053 113.412 57.9853 113.372C57.9283 113.268 57.8633 113.17 57.8023 113.067C57.7983 113.063 57.7963 113.063 57.7963 113.06C57.7923 113.054 57.7903 113.054 57.7903 113.051C57.7553 113.013 57.7233 112.976 57.6893 112.94C57.6383 112.889 57.5833 112.84 57.5283 112.795C57.5183 112.783 57.5093 112.773 57.5003 112.769C57.4753 112.748 57.4373 112.718 57.3963 112.694C57.3293 112.659 57.2663 112.621 57.2013 112.588C57.1813 112.575 57.1343 112.556 57.0903 112.54C57.0903 112.54 57.0873 112.54 57.0873 112.537C57.0773 112.533 57.0673 112.531 57.0593 112.527C57.0493 112.521 57.0433 112.517 57.0373 112.515C57.0273 112.511 57.0213 112.509 57.0153 112.509C57.0093 112.509 57.0093 112.505 57.0093 112.505C56.9893 112.495 56.9773 112.493 56.9683 112.489C56.4633 112.304 55.9513 112.101 55.4153 112.022C55.4123 112.022 55.4033 112.019 55.3963 112.019H55.3843C55.3243 112.019 55.2013 112.007 55.1953 112.007C55.1203 112.003 55.0473 112.003 54.9743 112.007C54.9393 112.007 54.9053 112.007 54.8733 112.01H54.8453C54.8333 112.01 54.8183 112.014 54.8023 112.014C54.7963 112.02 54.7863 112.02 54.7823 112.02C54.7793 112.02 54.7763 112.02 54.7763 112.02C54.6563 112.055 54.5303 112.087 54.4103 112.124C54.3593 112.15 54.3033 112.175 54.2523 112.207C54.2093 112.232 54.1643 112.264 54.1203 112.286C54.1173 112.289 54.1113 112.295 54.1043 112.295L54.0953 112.305C54.0383 112.362 53.9783 112.415 53.9213 112.472C53.9023 112.492 53.8493 112.557 53.8113 112.605C53.8013 112.611 53.7953 112.617 53.7953 112.623C53.7923 112.626 53.7923 112.626 53.7893 112.629C53.7863 112.632 53.7863 112.635 53.7793 112.638C53.7763 112.642 53.7763 112.645 53.7733 112.645C53.7583 112.672 53.7423 112.695 53.7363 112.708C53.5333 113.023 53.3283 113.336 53.1173 113.647C52.6313 114.392 52.1333 115.133 51.6283 115.869C51.1673 116.535 50.7073 117.201 50.2493 117.866C49.9933 118.239 49.7413 118.607 49.4893 118.98C49.4453 119.043 49.4043 119.106 49.3633 119.169C49.6623 119.226 49.9623 119.285 50.2653 119.342C50.9433 119.466 51.6183 119.585 52.3063 119.679C53.7223 119.872 55.1623 119.961 56.5973 119.91C56.6663 119.906 56.7353 119.91 56.7993 119.922C57.1443 119.43 57.5503 118.843 58.0683 118.057C58.3553 117.618 58.6293 117.212 58.8873 116.836C58.7713 116.656 58.6983 116.441 58.6733 116.215Z" fill="white"/>
<path d="M53.6294 122.067C53.5074 123.159 52.2854 125.985 50.3794 128.676C48.7834 130.926 47.8144 131.472 47.6214 131.491C46.8514 131.384 46.0915 129.478 45.4885 127.588C45.2465 126.822 45.0274 126.058 44.8444 125.418C44.4314 123.98 44.3565 122.051 44.4285 120.84C46.0385 121.732 48.8645 121.972 52.8345 121.988H52.8465C53.1085 122.016 53.3674 122.045 53.6294 122.067Z" fill="white"/>
<path d="M50.8063 113.076C50.8063 113.08 50.8063 113.08 50.8063 113.082C50.7873 113.108 50.7713 113.136 50.7533 113.161C50.0713 114.164 49.3843 115.162 48.6963 116.161C48.3403 116.676 47.9873 117.19 47.6363 117.708C47.4443 117.989 47.1853 118.298 46.9613 118.632C46.3963 118.499 45.8323 118.37 45.2733 118.212C44.8163 118.08 44.3653 117.938 43.9223 117.761C43.8333 117.729 43.7483 117.694 43.6663 117.654C43.5933 117.506 43.4893 117.373 43.3633 117.272C43.3663 117.269 43.3663 117.26 43.3693 117.256C43.5303 116.928 43.6943 116.597 43.8553 116.269C44.1613 115.667 44.4683 115.068 44.8083 114.487C45.4153 113.439 46.1463 112.373 47.1723 111.694C47.2233 111.656 47.2793 111.621 47.3333 111.587C47.7313 111.337 48.1293 111.161 48.6173 111.101C48.6743 111.095 49.0183 111.097 49.1793 111.111C49.2073 111.111 49.2303 111.114 49.2463 111.114H49.2493C49.2613 111.118 49.2843 111.124 49.3183 111.136C49.4383 111.174 49.5593 111.199 49.6793 111.24C49.7203 111.26 49.7573 111.278 49.7993 111.3C49.9033 111.363 50.0103 111.42 50.1083 111.499C49.9503 111.379 50.3263 111.767 50.3263 111.739C50.6293 112.158 50.7213 112.509 50.8063 113.076Z" fill="white"/>
<path d="M45.4062 110.232C44.1442 111.27 43.2262 112.652 42.4602 114.09C42.0302 114.888 41.6422 115.702 41.2382 116.513C41.1972 116.596 41.1562 116.675 41.1092 116.756C40.7272 116.673 40.3452 116.563 39.9722 116.444C39.5752 116.318 39.1802 116.173 38.8022 115.997C38.6292 115.914 38.4552 115.829 38.2822 115.738C38.6602 115.022 39.1112 114.334 39.5412 113.666C40.1472 112.722 40.8032 111.795 41.5162 110.924C41.7842 110.593 42.0682 110.23 42.4442 110.012C42.8282 109.785 43.2932 109.839 43.7342 109.864C44.2012 109.893 44.7032 109.905 45.1442 110.082C45.2352 110.121 45.3342 110.182 45.4062 110.232Z" fill="white"/>
<path d="M43.4021 127.168C43.3391 127.221 43.2861 127.278 43.2391 127.345C43.1951 127.357 43.1501 127.367 43.1221 127.374C42.8191 127.405 42.5101 127.427 42.2041 127.447C41.6171 127.484 41.0211 127.51 40.4281 127.488C40.0971 127.476 39.7971 127.425 39.6611 127.214C39.4431 126.883 39.3771 126.305 39.2991 125.866C38.9111 123.711 38.8601 121.466 39.1351 119.285C40.2611 119.689 41.4201 120.002 42.6081 120.197C42.3521 122.163 42.7881 125.049 43.0431 125.933C43.1621 126.344 43.2821 126.76 43.4021 127.168Z" fill="white"/>
<path d="M39.7794 109.514C38.7824 110.738 37.8744 112.041 37.0594 113.391C36.7304 113.94 36.3584 114.508 36.0844 115.095C35.6894 114.985 35.3334 114.827 34.9554 114.593C34.6654 114.413 34.3834 114.214 34.1094 114.006C34.0404 113.949 33.8514 113.801 33.7334 113.706C33.7064 113.685 33.6804 113.663 33.6514 113.647C33.7424 113.389 33.9094 113.101 34.0014 112.908C34.2104 112.451 34.4434 112.002 34.6874 111.565C35.1504 110.745 35.6684 109.943 36.2554 109.205C36.4734 108.933 36.6804 108.583 37.0194 108.482C37.3284 108.394 37.7354 108.435 37.9844 108.478C38.7224 108.621 39.3004 108.956 39.7794 109.514Z" fill="white"/>
<path d="M32.0975 114.825C32.1115 114.773 32.1795 114.766 32.2105 114.81C32.4725 115.183 32.8375 115.507 33.2295 115.812C33.4045 115.945 33.5775 116.077 33.7545 116.202C33.7765 116.218 33.7865 116.245 33.7805 116.272C33.3675 117.983 33.0855 119.8 33.0905 121.59C33.0905 121.669 32.9715 121.685 32.9535 121.608C32.4485 119.524 31.7625 116.05 32.0975 114.825Z" fill="white"/>
<path d="M36.9787 118.548C36.7767 120.037 36.6797 121.53 36.7447 123.031C36.7767 123.854 36.8647 124.672 36.9757 125.485C36.9757 125.491 36.9757 125.498 36.9787 125.501V125.505C36.8017 125.464 36.6167 125.458 36.4277 125.485C36.4647 125.473 36.3677 125.479 36.3267 125.479H36.3147C36.2867 125.476 36.2457 125.473 36.2317 125.47C36.0237 125.419 36.0057 125.397 35.8407 125.293C35.6257 125.154 35.3987 124.901 35.2477 124.643C34.8467 123.949 34.7587 123.106 34.7267 122.32C34.6677 120.778 34.7997 119.238 35.0877 117.727C35.3337 117.827 35.5477 117.919 35.9047 118.073C36.2577 118.227 36.6237 118.379 36.9807 118.544V118.548H36.9787Z" fill="white"/>
<g opacity="0.8" filter="url(#filter0_i_1361_2543)">
<path opacity="0.8" d="M76.3523 196.467C69.5573 196.467 63.1123 196.038 57.7043 195.617L56.2133 195.501L54.7243 195.294C54.0733 195.202 53.1883 195.107 52.3343 195.014C47.1313 194.448 37.4553 193.394 26.7743 188.378L25.1153 187.596L23.5683 186.73C3.04029 175.223 -4.6427 157.906 -8.7797 148.596C-9.0427 148.005 -9.3627 147.285 -9.6627 146.622C-11.7517 142.348 -13.0717 138.495 -14.1917 134.968L-14.4407 134.18L-14.6477 133.415C-17.6277 122.825 -18.3807 113.68 -17.0157 104.637C-15.6477 95.5568 -12.2837 87.2958 -6.4407 78.6488L-3.4107 73.7008C-2.7957 72.7018 -2.36169 71.6018 -2.12769 70.4518C0.182306 59.0028 5.4243 50.8928 8.0003 47.0198C8.7093 42.3308 9.87829 37.7239 11.4903 33.2649L11.7303 32.5888L11.9873 31.9298C12.0293 31.8138 12.0833 31.6499 12.1823 31.3509C13.3393 27.8659 16.0523 19.7098 22.9983 11.1458L25.6073 7.98584L28.2653 5.58484C35.0933 -0.620161 43.2283 -5.21216 52.0683 -7.85216C57.0043 -9.32416 62.0923 -10.2241 67.2333 -10.5341L67.7303 -10.5712L68.4793 -10.6062C69.3683 -10.6482 70.2543 -10.6682 71.1183 -10.6682C74.3263 -10.6742 77.5293 -10.4042 80.6903 -9.86215C82.6663 -9.52915 84.6953 -9.76116 86.5443 -10.5312C92.0253 -12.8182 97.7873 -14.3651 103.676 -15.1311C104.168 -15.2011 104.597 -15.2551 104.935 -15.2991C105.864 -15.4151 107.34 -15.5892 109.124 -15.7592C112.234 -16.0562 117.003 -16.4102 122.173 -16.4102C132.269 -16.4102 140.96 -15.1022 148.74 -12.4122L149.402 -12.1822L150.049 -11.9391C167.218 -5.45115 175.958 3.61286 182.244 11.6089L182.542 11.9898L183.407 12.7589C189.085 17.2018 193.914 22.6328 197.661 28.7928L198.833 30.7209L199.822 32.7429C208.22 49.8849 205.551 65.7129 204.545 71.6599L204.491 71.9778C203.768 76.3648 202.617 80.6709 201.055 84.8339C200.48 88.8479 199.535 92.7999 198.231 96.6389C196.002 103.464 192.713 109.895 188.485 115.698C186.051 119.141 183.302 122.351 180.274 125.286C179.203 126.321 178.509 127.684 178.302 129.158C178.171 130.066 178.022 130.964 177.852 131.853C175.39 145.058 169.615 154.248 167.258 157.908L160.131 168.144C151.548 178.837 141.364 185.89 129.041 189.68L126.055 190.616L122.83 191.177C119.141 191.828 115.402 192.152 111.656 192.144C111.139 192.144 110.619 192.144 110.042 192.129H109.876L109.24 192.169L108.558 192.194H108.539C107.111 192.242 105.695 192.475 104.327 192.888C96.3673 195.323 87.3633 196.467 76.3523 196.467Z" stroke="url(#paint2_linear_1361_2543)" stroke-width="1.0554" stroke-miterlimit="10"/>
<path opacity="0.8" d="M76.3526 189.429C69.8416 189.429 63.5966 189.014 58.3476 188.6L57.1036 188.504L55.8596 188.332C55.0836 188.224 54.1366 188.125 53.2216 188.021C48.1686 187.472 39.7206 186.553 30.2896 182.13L28.9046 181.479L27.6166 180.755C9.50157 170.595 2.79957 155.509 -1.20643 146.493C-1.49243 145.85 -1.84342 145.06 -2.17042 144.343C-4.03642 140.515 -5.26042 136.979 -6.29342 133.726L-6.50042 133.07L-6.68043 132.432C-9.33043 123.013 -10.0154 114.976 -8.83343 107.134C-7.65143 99.2906 -4.67342 92.0436 0.520576 84.4046L4.40258 78.0656C5.08958 76.9426 5.56057 75.7006 5.79157 74.4056C7.72457 63.6366 12.8116 56.0016 15.1236 52.5266L15.4156 52.0866L15.5236 51.9126C15.5716 51.8066 15.6166 51.7056 15.6606 51.5956C15.8016 51.1376 15.9406 50.6936 16.0756 50.2706C16.6836 45.8526 17.7566 41.5126 19.2786 37.3206L19.4866 36.7566L19.7086 36.1906C19.7786 36.0106 19.8446 35.8156 20.0396 35.2306C21.1406 31.9126 23.4326 25.0246 29.4276 17.6336L31.6026 15.0006L33.8106 13.0036C39.7316 7.62362 46.7846 3.64262 54.4496 1.35362C58.8016 0.0616224 63.2866 -0.726377 67.8176 -0.995377L68.2326 -1.0284L68.8546 -1.05739C69.6116 -1.09339 70.3666 -1.10939 71.1026 -1.10939C74.3536 -1.11539 77.5956 -2.05138 80.7806 -1.39738C83.2376 -0.889385 85.7926 -1.16137 88.0876 -2.17537C92.3756 -4.06637 98.1486 -4.82138 104.758 -5.64438C105.229 -5.71338 105.639 -5.76438 105.958 -5.80438C106.827 -5.91438 108.217 -6.07838 109.898 -6.23738C112.822 -6.51738 117.322 -6.85938 122.16 -6.85938C131.319 -6.85938 139.122 -5.70039 146.017 -3.31639L146.568 -3.12538L147.107 -2.91737C162.326 2.83263 169.847 10.5296 175.707 17.9926C176.032 18.4076 176.366 18.8326 176.49 18.9796L176.629 19.1036L177.741 20.0936L177.89 20.2466C182.953 24.1246 187.249 28.9116 190.56 34.3616L191.535 35.9686L192.364 37.6526C199.588 52.3976 197.324 65.8126 196.358 71.5416L196.306 71.8466C195.62 76.0086 194.499 80.0876 192.959 84.0146C192.474 87.8366 191.604 91.5996 190.363 95.2476C188.392 101.286 185.483 106.978 181.743 112.112C179.211 115.712 176.283 119.015 173.015 121.962C171.499 123.324 170.542 125.2 170.33 127.227C170.172 128.72 169.959 130.171 169.689 131.596C167.518 143.252 162.444 151.314 160.121 154.924L154.348 163.316C146.676 173.174 137.585 179.621 126.572 183.016L124.084 183.795L121.388 184.262C118.171 184.83 114.909 185.112 111.642 185.106C111.167 185.106 110.682 185.106 110.16 185.093H110.012H109.703C109.703 185.093 109.6 185.093 109.388 185.108L108.818 185.143L108.244 185.164L107.097 185.207C105.581 185.261 104.08 185.522 102.634 185.983C95.3016 188.324 86.8286 189.429 76.3526 189.429Z" stroke="url(#paint3_linear_1361_2543)" stroke-width="1.0554" stroke-miterlimit="10"/>
<path opacity="0.8" d="M76.3534 181.139C70.1324 181.139 64.0814 180.735 58.9884 180.339L57.9954 180.262L57.0044 180.125C56.1064 180.001 55.0964 179.891 54.1194 179.783C49.2904 179.258 41.9974 178.464 33.8194 174.628L32.7094 174.108L31.6724 173.529C15.9634 164.722 10.1944 151.731 6.37442 143.134C6.04942 142.398 5.68041 141.568 5.33841 140.799C3.67941 137.425 2.57141 134.207 1.62841 131.227L1.46241 130.704L1.31741 130.191C-1.00359 121.947 -1.61659 115.016 -0.617588 108.382C0.396412 101.655 3.03842 95.3845 7.69142 88.6445L8.2454 87.8445L8.8444 87.0755C9.2214 86.5945 9.58442 86.1195 9.94142 85.6545L12.2764 81.3725C13.0424 79.9735 13.5594 78.4515 13.8044 76.8755C15.2894 67.2685 19.9174 60.3275 22.0534 57.1265L22.0634 57.1095C22.1864 56.9265 22.3434 56.6945 22.4244 56.5665L22.8804 55.8385C23.0594 55.4485 23.2954 54.9305 23.5024 54.3865C23.7104 53.7375 23.9574 52.9355 24.2264 52.1055C24.7324 48.0135 25.7024 43.9915 27.1174 40.1185L27.2784 39.6665L27.4554 39.2095C27.6044 38.8305 27.7144 38.5005 27.9304 37.8515C28.9524 34.7805 30.8474 29.0805 35.8884 22.8615L37.6324 20.7525L39.3934 19.1625C44.4044 14.6085 50.3744 11.2375 56.8634 9.30051C60.6294 8.18251 64.5124 7.50452 68.4344 7.28052L68.7654 7.25552L69.2694 7.23251C69.8914 7.20351 70.5134 7.18951 71.1354 7.18951C74.5084 7.18451 77.8674 7.61151 81.1304 8.46051C83.9564 9.17551 86.9444 8.85953 89.5574 7.57053C93.7404 5.54053 99.3354 3.38651 105.889 2.58151C106.339 2.51751 106.719 2.4675 107.028 2.4285C107.843 2.3265 109.141 2.17352 110.717 2.01352C113.46 1.75052 117.678 1.4375 122.19 1.4375C130.412 1.4375 137.327 2.44651 143.341 4.52451L143.783 4.6785L144.214 4.83951C158.192 10.1235 164.45 17.0435 169.218 23.1125C170.269 24.4495 170.428 24.6575 171.15 25.2985L172.04 26.0905L172.386 26.4445C174.686 28.2265 179.389 31.8945 183.505 38.6795L184.286 39.9645L184.946 41.3105C190.997 53.6585 189.114 64.8105 188.21 70.1715L188.16 70.4675C187.513 74.3975 186.418 78.2415 184.896 81.9225L184.855 82.2605C184.453 85.7815 183.675 89.2495 182.534 92.6055C180.823 97.8605 178.293 102.813 175.038 107.279C172.315 111.182 169.042 114.67 165.321 117.637C164.436 118.339 163.711 119.222 163.195 120.227C162.679 121.233 162.385 122.337 162.331 123.466C162.23 125.681 161.975 127.888 161.568 130.068C159.689 140.175 155.277 147.182 153.025 150.68L148.55 157.293C141.804 166.298 133.808 172.127 124.145 175.09L122.157 175.712L120.006 176.086C117.257 176.572 114.469 176.813 111.677 176.807C111.243 176.807 110.802 176.807 110.325 176.795H110.215H109.738C109.657 176.795 109.41 176.795 108.908 176.826L108.452 176.855L108.011 176.872L105.705 176.957C104.09 177.012 102.491 177.3 100.958 177.812C94.2424 180.075 86.3184 181.139 76.3534 181.139Z" stroke="url(#paint4_linear_1361_2543)" stroke-width="0.989438" stroke-miterlimit="10"/>
<path opacity="0.8" d="M76.3511 172.843C70.4061 172.843 64.5611 172.451 59.6301 172.068L58.8851 172.01L58.1411 171.908C57.1231 171.767 56.0511 171.649 55.0121 171.537C50.4731 171.041 44.2661 170.367 37.3381 167.118L36.5091 166.726L35.7351 166.293C22.4311 158.828 17.5371 147.815 13.9621 139.767C13.5911 138.938 13.2051 138.065 12.8241 137.229C11.3041 134.173 10.3361 131.238 9.53112 128.727L9.40713 128.335L9.29913 127.952C5.40913 114.127 6.87113 104.429 14.5141 93.3637L14.9291 92.7617L15.3791 92.1857C15.8871 91.5367 16.3621 90.9127 16.8301 90.3197C17.5351 89.3947 18.2491 88.4527 19.0261 87.4847C19.5091 86.8817 19.8981 86.2087 20.1811 85.4897L21.0581 83.2507C21.4301 82.2977 21.6631 81.2977 21.7511 80.2787C22.5121 71.4097 26.8251 64.9447 28.9611 61.7407L28.9731 61.7237C29.1291 61.4877 29.3651 61.1357 29.4441 61.0087L29.9441 60.2107L30.0971 60.0027C30.3631 59.4657 30.8831 58.3317 31.3411 57.1437C31.5881 56.3307 31.9781 55.0827 32.3591 53.9477C32.3591 53.9047 32.3591 53.8567 32.3761 53.8067C32.7851 50.0907 33.6411 46.4377 34.9271 42.9267L35.0491 42.5867L35.1821 42.2447C35.4141 41.6537 35.5781 41.1597 35.8041 40.4777C36.7161 37.7367 38.2421 33.1477 42.3321 28.1047L43.6401 26.5207L44.9531 25.3347C54.6111 16.5707 65.4191 15.8147 69.0311 15.5717L69.2801 15.5527L69.6621 15.5347C70.1531 15.5117 70.6451 15.5017 71.1261 15.5017C75.4141 15.5167 79.6571 16.3837 83.6071 18.0537C84.3071 18.3447 85.0621 18.4767 85.8191 18.4407C86.5761 18.4047 87.3151 18.2017 87.9841 17.8467H88.0051C91.6771 15.7167 98.4041 11.8557 106.981 10.8227C107.395 10.7607 107.777 10.7137 108.057 10.6777C108.812 10.5827 110.016 10.4417 111.497 10.2987C114.06 10.0537 117.996 9.76172 122.18 9.76172C129.465 9.76172 135.495 10.6237 140.617 12.3947L140.949 12.5087L141.272 12.6317C153.251 17.1577 158.417 22.8377 162.68 28.2667C163.827 29.7177 164.339 30.3917 165.623 31.5237L166.29 32.1187L166.825 32.6687L167.24 32.9967C169.27 34.5677 173.046 37.4937 176.397 43.0057L176.984 43.9697L177.479 44.9797C182.352 54.9327 180.828 63.9597 180.009 68.8117L179.962 69.0997C179.384 72.6277 178.38 76.0717 176.971 79.3557L176.853 79.6377C176.841 79.6987 176.824 79.7877 176.799 79.9177C176.735 80.2517 176.698 80.5177 176.654 80.8557L176.604 81.2367C176.272 84.2117 175.618 87.1417 174.653 89.9747C173.202 94.4447 171.052 98.6567 168.285 102.454C165.548 106.34 162.479 109.505 159.035 112.01C157.523 113.114 156.288 114.555 155.428 116.218C154.568 117.881 154.106 119.722 154.079 121.594C154.05 123.929 153.821 126.257 153.396 128.553C151.808 137.115 148.154 142.913 145.88 146.446L142.628 151.321C136.805 159.456 129.936 164.651 121.668 167.182L121.231 167.319C120.529 167.54 119.813 167.713 119.089 167.838L118.564 167.929C116.283 168.333 113.971 168.534 111.655 168.528C111.263 168.528 110.865 168.528 110.433 168.518H110.363C110.166 168.518 109.948 168.518 109.716 168.518C109.554 168.518 109.127 168.518 108.355 168.566L108.013 168.586L107.679 168.599C106.57 168.64 105.191 168.688 103.961 168.742C102.276 168.812 100.611 169.138 99.0241 169.71C93.0731 171.836 85.7901 172.843 76.3511 172.843Z" stroke="url(#paint5_linear_1361_2543)" stroke-width="0.923475" stroke-miterlimit="10"/>
<path opacity="0.8" d="M76.3516 164.549C70.6886 164.549 65.0466 164.17 60.2736 163.799L59.7756 163.761L59.2796 163.691C58.1376 163.533 56.9986 163.409 55.9016 163.291C51.7296 162.837 46.5376 162.271 40.8596 159.608L40.3046 159.347L39.7896 159.059C28.8916 152.948 24.8186 143.774 21.5426 136.402C21.1396 135.494 20.7126 134.557 20.2976 133.644C19.0146 131.083 18.1456 128.46 17.4326 126.215L17.3496 125.955L17.2766 125.7C14.0666 114.295 15.1266 107.056 21.3326 98.0707L21.6086 97.6707L21.9096 97.2877C22.4506 96.5947 22.9456 95.9477 23.4186 95.3237C25.0386 93.1997 26.5956 91.1557 28.9246 88.6697C29.4346 88.1237 29.7406 87.4177 29.7886 86.6727L29.9656 83.9887L29.8966 83.1097L29.9276 82.1977C30.1706 74.8387 33.8676 69.3017 35.8456 66.3277C36.0746 65.9837 36.3126 65.6297 36.4536 65.4037L36.7876 64.8727L37.0966 64.4577C37.4656 63.8547 38.4356 61.7977 39.1696 59.8237C39.4226 58.9937 39.9126 57.4117 40.3436 56.1567C40.4706 55.7567 40.4826 55.6597 40.5866 54.8007C40.9236 51.6957 41.6386 48.6427 42.7156 45.7107L42.7966 45.4817L42.8856 45.2517C43.1926 44.4677 43.4066 43.8277 43.6536 43.0847C44.4346 40.7337 45.6126 37.1897 48.7526 33.3187L49.6276 32.2607L50.4936 31.4767C57.2606 25.3327 64.6316 24.1697 69.6066 23.8357L69.7746 23.8207H70.0316C70.3926 23.8047 70.7516 23.7967 71.1036 23.7967C75.3526 23.7967 80.4346 25.8347 83.1036 27.0667C83.7416 27.3587 84.4316 27.5227 85.1336 27.5487C85.8356 27.5737 86.5356 27.4597 87.1926 27.2137C88.8536 26.6117 90.4716 25.8997 92.0366 25.0817C95.4316 23.1117 101.064 19.8587 108.058 19.0437C108.444 18.9857 108.79 18.9417 109.076 18.9047C109.779 18.8177 110.889 18.6977 112.263 18.5537C114.648 18.3257 118.3 18.0547 122.159 18.0547C128.504 18.0547 133.649 18.7677 137.885 20.2317L138.105 20.3087L138.312 20.3897C148.317 24.1697 152.299 28.5137 156.129 33.3887C157.373 34.9607 158.252 36.0847 160.079 37.7187L160.523 38.1147L160.937 38.5297C161.31 38.8987 161.711 39.2377 162.138 39.5437C163.855 40.8727 166.733 43.0997 169.286 47.3027L169.676 47.9457L170.007 48.6197C173.707 56.1697 172.518 63.2117 171.807 67.4187L171.76 67.7047C171.287 70.6097 170.459 73.4447 169.294 76.1467V76.1677C168.972 76.8667 168.749 77.6067 168.633 78.3677C168.533 78.8987 168.471 79.3257 168.411 79.7987L168.361 80.1837C168.095 82.6107 167.564 85.0017 166.779 87.3127C165.595 91.0017 163.824 94.4747 161.535 97.5987C158.155 102.42 154.248 105.812 149.541 107.967C148.397 108.489 147.42 109.316 146.718 110.359C146.015 111.401 145.614 112.617 145.559 113.872C145.537 114.387 145.528 114.81 145.543 115.046C145.775 118.673 146.038 122.783 145.23 127.017C143.934 134.02 140.968 138.727 138.739 142.183C138.739 142.183 128.512 156.417 119.206 159.258L118.204 159.571L117.128 159.759C115.317 160.081 113.481 160.24 111.641 160.234C111.293 160.234 110.936 160.234 110.553 160.224H110.519C110.273 160.224 110.005 160.224 109.702 160.224C109.337 160.224 108.742 160.224 107.817 160.288L107.591 160.303H107.368C103.807 160.431 100.442 160.552 99.5056 160.734C99.0056 160.812 98.5176 160.955 98.0546 161.161C92.7876 163.469 85.8806 164.549 76.3516 164.549Z" stroke="url(#paint6_linear_1361_2543)" stroke-width="0.857513" stroke-miterlimit="10"/>
<path opacity="0.8" d="M76.3522 156.258C70.9732 156.258 65.5302 155.891 60.9142 155.532L60.6672 155.513L60.4202 155.478C59.1572 155.304 57.9592 155.173 56.7982 155.047C52.8702 154.619 48.8082 154.178 44.3812 152.102L44.1032 151.969L43.8462 151.826C35.3442 147.057 32.1862 139.934 29.1232 133.037C28.6882 132.059 28.2382 131.047 27.7732 130.041C26.7362 127.992 26.0022 125.794 25.3432 123.712L25.3012 123.584L25.2642 123.453C22.7122 114.375 23.3612 109.74 28.1672 102.787L28.3062 102.58L28.4552 102.387C29.0192 101.668 29.5322 100.996 30.0252 100.347C32.3352 97.3166 34.3322 94.6977 38.8072 90.5677L38.8192 90.5547C39.1482 90.2417 39.3782 89.8397 39.4832 89.3977C39.5882 88.9567 39.5622 88.4937 39.4102 88.0667L38.6042 85.7667C38.4422 85.0417 38.3282 84.3067 38.2642 83.5667V83.5417L38.2142 82.9197L38.2302 82.4637C38.3942 77.4687 41.0222 73.5307 42.7592 70.9237C43.0312 70.5087 43.2902 70.1297 43.4912 69.8057L43.6572 69.5406L43.8442 69.2897C44.7672 68.0457 46.2662 64.6017 47.0542 62.4677C47.2612 61.8107 47.7922 60.0457 48.2342 58.7667C48.5482 57.8037 48.7522 56.8097 48.8412 55.8007C49.1022 53.3047 49.6752 50.8497 50.5462 48.4957L50.5872 48.3797L50.6332 48.2657C51.0162 47.2807 51.2862 46.4717 51.5472 45.6877C52.2422 43.5997 53.0282 41.2317 55.2152 38.5337L55.6552 38.0027L56.0842 37.6157C60.8912 33.2487 66.1602 32.3687 70.2242 32.0997H70.3092H70.4422C70.6702 32.0997 70.8982 32.0847 71.1242 32.0847C75.0792 32.0847 78.1192 33.7067 80.1302 34.7807L80.5992 35.0297L80.6692 35.0667C81.2212 35.3657 81.7062 35.6267 82.1562 35.8487C83.4062 36.4757 84.8422 36.6227 86.1932 36.2637C88.9472 35.5227 93.2442 33.8937 96.1342 32.3047L96.1942 32.2697C99.2342 30.5067 103.813 27.8527 109.179 27.2637C109.517 27.2097 109.841 27.1707 110.146 27.1307C110.768 27.0527 111.804 26.9237 113.071 26.8097C115.278 26.6027 118.647 26.3477 122.179 26.3477C127.587 26.3477 131.844 26.9117 135.195 28.0687L135.305 28.1077L135.417 28.1497C143.444 31.1827 146.372 34.3577 149.633 38.5177C150.961 40.2077 152.215 41.8037 154.594 43.9217L154.815 44.1287L155.023 44.3357C155.666 44.9847 156.359 45.5817 157.096 46.1217C158.523 47.2267 160.478 48.7407 162.235 51.6307L162.43 51.9527L162.596 52.2906C165.119 57.4436 164.279 62.4237 163.666 66.0587L163.618 66.3457C163.251 68.6387 162.593 70.8757 161.662 73.0037C161.119 74.2287 160.733 75.5177 160.514 76.8397C160.369 77.6067 160.284 78.2067 160.213 78.7617L160.163 79.1557C159.964 81.0357 159.557 82.8867 158.95 84.6757C158.03 87.5797 156.639 90.3117 154.832 92.7627C151.784 97.1387 148.404 99.8367 143.914 101.265C141.763 101.946 139.912 103.348 138.674 105.234L138.318 105.782L137.924 106.232C136.783 107.53 137.105 112.56 137.302 115.563C137.509 118.858 137.731 122.265 137.115 125.473C136.103 130.957 133.754 134.659 131.651 137.914C131.651 137.914 123.842 149.18 116.796 151.32L116.283 151.482L115.744 151.575C114.402 151.816 113.041 151.934 111.678 151.928C111.371 151.928 111.056 151.928 110.722 151.928C110.426 151.928 110.1 151.928 109.739 151.928C109.26 151.928 108.495 151.928 107.33 152.009H107.218H107.106C102.38 152.181 99.5292 152.282 97.9532 152.589C96.8922 152.777 95.8572 153.086 94.8672 153.512C90.6472 155.383 84.7542 156.258 76.3522 156.258Z" stroke="url(#paint7_linear_1361_2543)" stroke-width="0.857513" stroke-miterlimit="10"/>
</g>
</g>
<defs>
<filter id="filter0_i_1361_2543" x="-18.1992" y="-16.9375" width="224.745" height="214.329" filterUnits="userSpaceOnUse" color-interpolation-filters="sRGB">
<feFlood flood-opacity="0" result="BackgroundImageFix"/>
<feBlend mode="normal" in="SourceGraphic" in2="BackgroundImageFix" result="shape"/>
<feColorMatrix in="SourceAlpha" type="matrix" values="0 0 0 0 0 0 0 0 0 0 0 0 0 0 0 0 0 0 127 0" result="hardAlpha"/>
<feOffset dx="0.26385" dy="0.395775"/>
<feGaussianBlur stdDeviation="0.329812"/>
<feComposite in2="hardAlpha" operator="arithmetic" k2="-1" k3="1"/>
<feColorMatrix type="matrix" values="0 0 0 0 0 0 0 0 0 0 0 0 0 0 0 0 0 0 0.12 0"/>
<feBlend mode="normal" in2="shape" result="effect1_innerShadow_1361_2543"/>
</filter>
<radialGradient id="paint0_radial_1361_2543" cx="0" cy="0" r="1" gradientUnits="userSpaceOnUse" gradientTransform="translate(92.779 102.502) rotate(90) scale(104.235)">
<stop offset="0.166667" stop-color="#073183"/>
<stop offset="1" stop-color="#0054F9"/>
</radialGradient>
<radialGradient id="paint1_radial_1361_2543" cx="0" cy="0" r="1" gradientUnits="userSpaceOnUse" gradientTransform="translate(92.779 102.502) rotate(90) scale(104.235)">
<stop offset="0.166667" stop-color="#073183"/>
<stop offset="1" stop-color="#0054F9"/>
</radialGradient>
<linearGradient id="paint2_linear_1361_2543" x1="-17.6717" y1="-16.4102" x2="194.956" y2="206.755" gradientUnits="userSpaceOnUse">
<stop offset="0.205697" stop-color="#89D0FF"/>
<stop offset="0.398413" stop-color="#EBBF9A"/>
<stop offset="0.601546" stop-color="#EB8280"/>
<stop offset="0.841139" stop-color="#A281FF"/>
</linearGradient>
<linearGradient id="paint3_linear_1361_2543" x1="-9.39143" y1="-6.85937" x2="186.628" y2="199.716" gradientUnits="userSpaceOnUse">
<stop offset="0.205697" stop-color="#89D0FF"/>
<stop offset="0.398413" stop-color="#EBBF9A"/>
<stop offset="0.601546" stop-color="#EB80DA"/>
<stop offset="0.841139" stop-color="#A281FF"/>
</linearGradient>
<linearGradient id="paint4_linear_1361_2543" x1="-1.07959" y1="1.4365" x2="178.328" y2="191.418" gradientUnits="userSpaceOnUse">
<stop offset="0.205697" stop-color="#89D0FF"/>
<stop offset="0.398413" stop-color="#EBBF9A"/>
<stop offset="0.601546" stop-color="#EB8280"/>
<stop offset="0.841139" stop-color="#A281FF"/>
</linearGradient>
<linearGradient id="paint5_linear_1361_2543" x1="7.21613" y1="9.76172" x2="169.975" y2="183.098" gradientUnits="userSpaceOnUse">
<stop offset="0.205697" stop-color="#89D0FF"/>
<stop offset="0.398413" stop-color="#EBBF9A"/>
<stop offset="0.601546" stop-color="#EB80E7"/>
<stop offset="0.841139" stop-color="#A281FF"/>
</linearGradient>
<linearGradient id="paint6_linear_1361_2543" x1="15.5106" y1="18.0547" x2="161.652" y2="174.733" gradientUnits="userSpaceOnUse">
<stop offset="0.205697" stop-color="#89D0FF"/>
<stop offset="0.398413" stop-color="#EBBF9A"/>
<stop offset="0.601546" stop-color="#EB80D3"/>
<stop offset="0.841139" stop-color="#A281FF"/>
</linearGradient>
<linearGradient id="paint7_linear_1361_2543" x1="23.7942" y1="26.3477" x2="153.304" y2="166.431" gradientUnits="userSpaceOnUse">
<stop offset="0.205697" stop-color="#89D0FF"/>
<stop offset="0.398413" stop-color="#EBBF9A"/>
<stop offset="0.601546" stop-color="#A280EB"/>
<stop offset="0.841139" stop-color="#A281FF"/>
</linearGradient>
</defs>
</svg>