<svg id="visual" viewBox="0 0 960 540" width="960" height="540" xmlns="http://www.w3.org/2000/svg" xmlns:xlink="http://www.w3.org/1999/xlink" version="1.1"><rect x="0" y="0" width="960" height="540" fill="#0a0a0a"></rect><defs><linearGradient id="grad1_0" x1="43.8%" y1="100%" x2="100%" y2="0%"><stop offset="14.444444444444446%" stop-color="#ea580c" stop-opacity="1"></stop><stop offset="85.55555555555554%" stop-color="#ea580c" stop-opacity="1"></stop></linearGradient></defs><defs><linearGradient id="grad1_1" x1="43.8%" y1="100%" x2="100%" y2="0%"><stop offset="14.444444444444446%" stop-color="#ea580c" stop-opacity="1"></stop><stop offset="85.55555555555554%" stop-color="#743214" stop-opacity="1"></stop></linearGradient></defs><defs><linearGradient id="grad1_2" x1="43.8%" y1="100%" x2="100%" y2="0%"><stop offset="14.444444444444446%" stop-color="#0a0a0a" stop-opacity="1"></stop><stop offset="85.55555555555554%" stop-color="#743214" stop-opacity="1"></stop></linearGradient></defs><defs><linearGradient id="grad2_0" x1="0%" y1="100%" x2="56.3%" y2="0%"><stop offset="14.444444444444446%" stop-color="#ea580c" stop-opacity="1"></stop><stop offset="85.55555555555554%" stop-color="#ea580c" stop-opacity="1"></stop></linearGradient></defs><defs><linearGradient id="grad2_1" x1="0%" y1="100%" x2="56.3%" y2="0%"><stop offset="14.444444444444446%" stop-color="#743214" stop-opacity="1"></stop><stop offset="85.55555555555554%" stop-color="#ea580c" stop-opacity="1"></stop></linearGradient></defs><defs><linearGradient id="grad2_2" x1="0%" y1="100%" x2="56.3%" y2="0%"><stop offset="14.444444444444446%" stop-color="#743214" stop-opacity="1"></stop><stop offset="85.55555555555554%" stop-color="#0a0a0a" stop-opacity="1"></stop></linearGradient></defs><g transform="translate(960, 540)"><path d="M-378 0C-354.9 -44.6 -331.7 -89.1 -309.5 -128.2C-287.3 -167.3 -265.9 -200.9 -240.4 -240.4C-215 -279.9 -185.4 -325.3 -144.7 -349.2C-103.9 -373.1 -52 -375.6 0 -378L0 0Z" fill="#3f2012"></path><path d="M-252 0C-236.6 -29.7 -221.2 -59.4 -206.3 -85.5C-191.5 -111.5 -177.3 -133.9 -160.3 -160.3C-143.3 -186.6 -123.6 -216.9 -96.4 -232.8C-69.3 -248.8 -34.6 -250.4 0 -252L0 0Z" fill="#ad4513"></path><path d="M-126 0C-118.3 -14.9 -110.6 -29.7 -103.2 -42.7C-95.8 -55.8 -88.6 -67 -80.1 -80.1C-71.7 -93.3 -61.8 -108.4 -48.2 -116.4C-34.6 -124.4 -17.3 -125.2 0 -126L0 0Z" fill="#ea580c"></path></g><g transform="translate(0, 0)"><path d="M378 0C343.6 35.7 309.3 71.5 297.5 123.2C285.7 175 296.4 242.7 267.3 267.3C238.1 291.9 169.1 273.3 117.9 284.6C66.7 295.8 33.3 336.9 0 378L0 0Z" fill="#3f2012"></path><path d="M252 0C229.1 23.8 206.2 47.7 198.3 82.1C190.5 116.6 197.6 161.8 178.2 178.2C158.8 194.6 112.7 182.2 78.6 189.7C44.4 197.2 22.2 224.6 0 252L0 0Z" fill="#ad4513"></path><path d="M126 0C114.5 11.9 103.1 23.8 99.2 41.1C95.2 58.3 98.8 80.9 89.1 89.1C79.4 97.3 56.4 91.1 39.3 94.9C22.2 98.6 11.1 112.3 0 126L0 0Z" fill="#ea580c"></path></g></svg>