<svg id="visual" viewBox="0 0 900 600" width="900" height="600" xmlns="http://www.w3.org/2000/svg" xmlns:xlink="http://www.w3.org/1999/xlink" version="1.1"><rect x="0" y="0" width="900" height="600" fill="#09090b"></rect><defs><linearGradient id="grad1_0" x1="33.3%" y1="0%" x2="100%" y2="100%"><stop offset="20%" stop-color="#ea580c" stop-opacity="1"></stop><stop offset="80%" stop-color="#ea580c" stop-opacity="1"></stop></linearGradient></defs><defs><linearGradient id="grad1_1" x1="33.3%" y1="0%" x2="100%" y2="100%"><stop offset="20%" stop-color="#ea580c" stop-opacity="1"></stop><stop offset="80%" stop-color="#7a2452" stop-opacity="1"></stop></linearGradient></defs><defs><linearGradient id="grad1_2" x1="33.3%" y1="0%" x2="100%" y2="100%"><stop offset="20%" stop-color="#09090b" stop-opacity="1"></stop><stop offset="80%" stop-color="#7a2452" stop-opacity="1"></stop></linearGradient></defs><defs><linearGradient id="grad2_0" x1="0%" y1="0%" x2="66.7%" y2="100%"><stop offset="20%" stop-color="#ea580c" stop-opacity="1"></stop><stop offset="80%" stop-color="#ea580c" stop-opacity="1"></stop></linearGradient></defs><defs><linearGradient id="grad2_1" x1="0%" y1="0%" x2="66.7%" y2="100%"><stop offset="20%" stop-color="#7a2452" stop-opacity="1"></stop><stop offset="80%" stop-color="#ea580c" stop-opacity="1"></stop></linearGradient></defs><defs><linearGradient id="grad2_2" x1="0%" y1="0%" x2="66.7%" y2="100%"><stop offset="20%" stop-color="#7a2452" stop-opacity="1"></stop><stop offset="80%" stop-color="#09090b" stop-opacity="1"></stop></linearGradient></defs><g transform="translate(900, 0)"><path d="M0 378.6C-40.3 374.5 -80.6 370.4 -115.3 354.7C-150 339.1 -179.1 311.8 -209.3 288C-239.5 264.2 -270.8 243.8 -297.7 216.3C-324.7 188.8 -347.3 154.2 -360.1 117C-372.8 79.8 -375.7 39.9 -378.6 0L0 0Z" fill="#36203c"></path><path d="M0 252.4C-26.9 249.7 -53.7 246.9 -76.8 236.5C-100 226.1 -119.4 207.9 -139.5 192C-159.6 176.1 -180.5 162.5 -198.5 144.2C-216.5 125.9 -231.5 102.8 -240 78C-248.5 53.2 -250.5 26.6 -252.4 0L0 0Z" fill="#bf2a46"></path><path d="M0 126.2C-13.4 124.8 -26.9 123.5 -38.4 118.2C-50 113 -59.7 103.9 -69.8 96C-79.8 88.1 -90.3 81.3 -99.2 72.1C-108.2 62.9 -115.8 51.4 -120 39C-124.3 26.6 -125.2 13.3 -126.2 0L0 0Z" fill="#ea580c"></path></g><g transform="translate(0, 600)"><path d="M0 -378.6C36.8 -365 73.6 -351.4 110.3 -339.5C147.1 -327.6 183.8 -317.4 216.9 -298.5C250 -279.7 279.6 -252.3 304.2 -221C328.8 -189.7 348.5 -154.5 360.1 -117C371.6 -79.5 375.1 -39.8 378.6 0L0 0Z" fill="#36203c"></path><path d="M0 -252.4C24.5 -243.3 49 -234.3 73.5 -226.4C98 -218.4 122.5 -211.6 144.6 -199C166.7 -186.5 186.4 -168.2 202.8 -147.3C219.2 -126.5 232.3 -103 240 -78C247.8 -53 250.1 -26.5 252.4 0L0 0Z" fill="#bf2a46"></path><path d="M0 -126.2C12.3 -121.7 24.5 -117.1 36.8 -113.2C49 -109.2 61.3 -105.8 72.3 -99.5C83.3 -93.2 93.2 -84.1 101.4 -73.7C109.6 -63.2 116.2 -51.5 120 -39C123.9 -26.5 125 -13.3 126.2 0L0 0Z" fill="#ea580c"></path></g></svg>